<?xml version="1.0" encoding="UTF-8"?>
<svg id="Layer_1" xmlns="http://www.w3.org/2000/svg" version="1.1" viewBox="0 0 1080 1080">
  <defs>
    <style>
      .st0 {
        fill: #568f70;
      }

      .st1 {
        fill: #e0c991;
      }

      .st2 {
        fill: #d4d5d4;
      }

      .st3 {
        fill: #efebe5;
      }

      .st4 {
        fill: #404040;
      }

      .st5 {
        fill: #377252;
      }

      .st6 {
        fill: #d6d6d6;
      }

      .st7 {
        fill: #c6c6c6;
      }
    </style>
  </defs>
  <path class="st5" d="M900,153.8h-431.2v25c0,9.6-8.4,17.5-18.8,17.5h-22.5c-10.3,0-18.8-7.9-18.8-17.5v-25h-228.8c-26.9,0-48.8,20.7-48.8,46.3v680c0,25.5,21.9,46.3,48.8,46.3h720c26.9,0,48.8-20.7,48.8-46.3V200c0-25.5-21.9-46.3-48.8-46.3ZM941.2,880c0,21.4-18.5,38.8-41.2,38.8H180c-22.7,0-41.2-17.4-41.2-38.8V200c0-21.4,18.5-38.8,41.2-38.8h221.2v17.5c0,13.8,11.8,25,26.2,25h22.5c14.5,0,26.2-11.2,26.2-25v-17.5h423.8c22.7,0,41.2,17.4,41.2,38.8v680Z"/>
  <path class="st3" d="M206.2,269.1v164.7h18.8c4.1,0,7.5,3.4,7.5,7.5v84.2c0,4.1-3.4,7.5-7.5,7.5h-18.8v148.7h18.8c4.1,0,7.5,3.4,7.5,7.5v84.2c0,4.1-3.4,7.5-7.5,7.5h-18.8v44.3c0,16.6,14.3,30.1,31.9,30.1h69.4v-17.3c0-4.1,3.4-7.5,7.5-7.5h90c4.1,0,7.5,3.4,7.5,7.5v17.3h255v-17.3c0-4.1,3.4-7.5,7.5-7.5h90c4.1,0,7.5,3.4,7.5,7.5v17.3h69.4c17.6,0,31.9-13.5,31.9-30.1v-44.3h-18.8c-4.1,0-7.5-3.4-7.5-7.5v-84.2c0-4.1,3.4-7.5,7.5-7.5h18.8v-148.7h-18.8c-4.1,0-7.5-3.4-7.5-7.5v-84.2c0-4.1,3.4-7.5,7.5-7.5h18.8v-164.7c0-16.6-14.3-30.1-31.9-30.1h-103.1v67.3c0,3.9-3.4,7.1-7.5,7.1h-382.5c-4.1,0-7.5-3.2-7.5-7.1v-67.3h-103.1c-17.6,0-31.9,13.5-31.9,30.1ZM772.5,283.6c0-8.3,6.7-15,15-15h37.5c8.3,0,15,6.7,15,15v105.4c0,8.3-6.7,15-15,15h-37.5c-8.3,0-15-6.7-15-15v-105.4ZM739.9,562.1h80.2c6.8,0,12.4,5.5,12.4,12.4h0c0,6.8-5.5,12.4-12.4,12.4h-80.2c-6.8,0-12.4-5.5-12.4-12.4h0c0-6.8,5.5-12.4,12.4-12.4ZM661.5,481.6c2.4-17,14.4-31.8,32.7-33.5,18.6-1.9,34.3,11.7,38.2,28.3,2.3,8.6,2.6,19.4,2.6,29,0,9.6-.5,20.2-3,28.6-3.8,14.8-17.8,27.5-34.5,27.3h-.1c-9.8,0-19.3-4.3-25.6-11.3-7.4-7.6-10.5-19.3-11.2-30.3-.9-12.6-.9-25.5,1-38.1ZM487.6,634.3h104.8c5,0,8,5.1,5.4,9.1l-52.4,81.5c-2.5,3.9-8.4,3.9-10.9,0l-52.4-81.5c-2.6-4,.5-9.1,5.4-9.1ZM346.5,481.6c2.4-17,14.4-31.8,32.7-33.5,18.6-1.9,34.3,11.7,38.2,28.3,2.3,8.6,2.6,19.4,2.6,29,0,9.6-.5,20.2-3,28.6-3.8,14.8-17.8,27.5-34.5,27.3h-.1c-9.8,0-19.3-4.3-25.6-11.3-7.4-7.6-10.5-19.3-11.2-30.3-.9-12.6-.9-25.5,1-38.1ZM352.5,574.5h0c0,6.8-5.5,12.4-12.4,12.4h-80.2c-6.8,0-12.4-5.5-12.4-12.4h0c0-6.8,5.5-12.4,12.4-12.4h80.2c6.8,0,12.4,5.5,12.4,12.4ZM240,283.6c0-8.3,6.7-15,15-15h37.5c8.3,0,15,6.7,15,15v105.4c0,8.3-6.7,15-15,15h-37.5c-8.3,0-15-6.7-15-15v-105.4Z"/>
  <path class="st3" d="M292.5,389.1v-105.4h-37.5v105.4h37.5s0,0,0,0Z"/>
  <path class="st3" d="M825,389.1v-105.4h-37.5v105.4h37.5s0,0,0,0Z"/>
  <g>
    <path class="st7" d="M292.5,268.6h-37.5c-8.3,0-15,6.7-15,15v105.4c0,8.3,6.7,15,15,15h37.5c8.3,0,15-6.7,15-15v-105.4c0-8.3-6.7-15-15-15ZM292.5,389.1h-37.5v-105.4h37.5v105.4s0,0,0,0Z"/>
    <path class="st7" d="M825,268.6h-37.5c-8.3,0-15,6.7-15,15v105.4c0,8.3,6.7,15,15,15h37.5c8.3,0,15-6.7,15-15v-105.4c0-8.3-6.7-15-15-15ZM825,389.1h-37.5v-105.4h37.5v105.4s0,0,0,0Z"/>
  </g>
  <rect class="st6" x="247.5" y="562.1" width="105" height="24.8" rx="12.4" ry="12.4"/>
  <rect class="st6" x="727.5" y="562.1" width="105" height="24.8" rx="12.4" ry="12.4"/>
  <g>
    <path class="st4" d="M592.4,634.3h-104.8c-5,0-8,5.1-5.4,9.1l52.4,81.5c2.5,3.9,8.4,3.9,10.9,0l52.4-81.5c2.6-4-.5-9.1-5.4-9.1Z"/>
    <path class="st4" d="M379.2,448.1c-18.3,1.8-30.3,16.5-32.7,33.5-1.9,12.6-1.8,25.4-1,38.1.7,10.9,3.8,22.6,11.2,30.3,6.3,7,15.8,11.4,25.6,11.3h.1c16.7.2,30.7-12.5,34.5-27.3,2.4-8.4,2.9-19,3-28.6,0-9.5-.4-20.3-2.6-29-3.9-16.6-19.5-30.2-38.2-28.3Z"/>
    <path class="st4" d="M732.4,476.4c-3.9-16.6-19.5-30.2-38.2-28.3-18.3,1.8-30.3,16.5-32.7,33.5-1.9,12.6-1.8,25.4-1,38.1.7,10.9,3.8,22.6,11.2,30.3,6.3,7,15.8,11.4,25.6,11.3h.1c16.7.2,30.7-12.5,34.5-27.3,2.4-8.4,2.9-19,3-28.6,0-9.5-.4-20.3-2.6-29Z"/>
  </g>
  <g>
    <path class="st2" d="M180,269.1v164.7h26.2v-164.7c0-16.6,14.3-30.1,31.9-30.1h103.1v-24.8h-103.1c-32.1,0-58.1,24.6-58.1,54.9Z"/>
    <path class="st2" d="M841.9,214.2h-103.1v24.8h103.1c17.6,0,31.9,13.5,31.9,30.1v164.7h26.2v-164.7c0-30.3-26.1-54.9-58.1-54.9Z"/>
    <polygon class="st2" points="873.7 532.9 873.7 681.7 886.9 681.7 900 681.7 900 532.9 886.9 532.9 873.7 532.9"/>
    <polygon class="st2" points="206.2 681.7 206.2 532.9 193.1 532.9 180 532.9 180 681.7 193.1 681.7 206.2 681.7"/>
    <path class="st2" d="M206.2,825.1v-44.3h-26.2v44.3c0,30.3,26.1,54.9,58.1,54.9h69.4v-24.8h-69.4c-17.6,0-31.9-13.5-31.9-30.1Z"/>
    <path class="st2" d="M873.7,780.8v44.3c0,16.6-14.3,30.1-31.9,30.1h-69.4v24.8h69.4c32.1,0,58.1-24.6,58.1-54.9v-44.3h-26.2Z"/>
    <polygon class="st2" points="412.5 867.6 412.5 880 667.5 880 667.5 867.6 667.5 855.2 412.5 855.2 412.5 867.6"/>
  </g>
  <path class="st0" d="M900,161.2h-423.8v17.5c0,13.8-11.8,25-26.2,25h-22.5c-14.5,0-26.2-11.2-26.2-25v-17.5h-221.2c-22.7,0-41.2,17.4-41.2,38.8v680c0,21.4,18.5,38.8,41.2,38.8h720c22.7,0,41.2-17.4,41.2-38.8V200c0-21.4-18.5-38.8-41.2-38.8ZM166.9,178.7h57l-57,65.2v-65.2ZM900,433.7h-45c-4.1,0-7.5,3.4-7.5,7.5v4h18.8c4.1,0,7.5,3.4,7.5,7.5v2.7c0,4.1-3.4,7.5-7.5,7.5h-18.8v11.5h18.8c4.1,0,7.5,3.4,7.5,7.5v2.7c0,4.1-3.4,7.5-7.5,7.5h-18.8v11.5h18.8c4.1,0,7.5,3.4,7.5,7.5v2.7c0,4.1-3.4,7.5-7.5,7.5h-18.8v4c0,4.1,3.4,7.5,7.5,7.5h45v148.8h-45c-4.1,0-7.5,3.4-7.5,7.5v4h18.8c4.1,0,7.5,3.4,7.5,7.5v2.7c0,4.1-3.4,7.5-7.5,7.5h-18.8v11.5h18.8c4.1,0,7.5,3.4,7.5,7.5v2.7c0,4.1-3.4,7.5-7.5,7.5h-18.8v11.5h18.8c4.1,0,7.5,3.4,7.5,7.5v2.7c0,4.1-3.4,7.5-7.5,7.5h-18.8v4c0,4.1,3.4,7.5,7.5,7.5h45v44.3c0,30.3-26.1,54.9-58.1,54.9h-69.4v-42.1c0-4.1-3.4-7.5-7.5-7.5h-4.7v17.3c0,4.1-3.4,7.5-7.5,7.5h-3.8c-4.1,0-7.5-3.4-7.5-7.5v-17.3h-12.2v17.3c0,4.1-3.4,7.5-7.5,7.5h-3.8c-4.1,0-7.5-3.4-7.5-7.5v-17.3h-12.2v17.3c0,4.1-3.4,7.5-7.5,7.5h-3.8c-4.1,0-7.5-3.4-7.5-7.5v-17.3h-4.7c-4.1,0-7.5,3.4-7.5,7.5v42.1h-255v-42.1c0-4.1-3.4-7.5-7.5-7.5h-4.7v17.3c0,4.1-3.4,7.5-7.5,7.5h-3.8c-4.1,0-7.5-3.4-7.5-7.5v-17.3h-12.2v17.3c0,4.1-3.4,7.5-7.5,7.5h-3.8c-4.1,0-7.5-3.4-7.5-7.5v-17.3h-12.2v17.3c0,4.1-3.4,7.5-7.5,7.5h-3.8c-4.1,0-7.5-3.4-7.5-7.5v-17.3h-4.7c-4.1,0-7.5,3.4-7.5,7.5v42.1h-69.4c-32.1,0-58.1-24.6-58.1-54.9v-44.3h45c4.1,0,7.5-3.4,7.5-7.5v-1.8h-18.8c-4.1,0-7.5-3.4-7.5-7.5v-2.7c0-4.1,3.4-7.5,7.5-7.5h18.8v-11.5h-18.8c-4.1,0-7.5-3.4-7.5-7.5v-2.7c0-4.1,3.4-7.5,7.5-7.5h18.8v-11.5h-18.8c-4.1,0-7.5-3.4-7.5-7.5v-2.7c0-4.1,3.4-7.5,7.5-7.5h18.8v-6.2c0-4.1-3.4-7.5-7.5-7.5h-45v-148.8h45c4.1,0,7.5-3.4,7.5-7.5v-4h-18.8c-4.1,0-7.5-3.4-7.5-7.5v-2.7c0-4.1,3.4-7.5,7.5-7.5h18.8v-11.5h-18.8c-4.1,0-7.5-3.4-7.5-7.5v-2.7c0-4.1,3.4-7.5,7.5-7.5h18.8v-11.5h-18.8c-4.1,0-7.5-3.4-7.5-7.5v-2.7c0-4.1,3.4-7.5,7.5-7.5h18.8v-4c0-4.1-3.4-7.5-7.5-7.5h-45v-164.7c0-30.3,26.1-54.9,58.1-54.9h103.1v92.1c0,3.9,3.4,7.1,7.5,7.1h382.5c4.1,0,7.5-3.2,7.5-7.1v-92.1h103.1c32.1,0,58.1,24.6,58.1,54.9v164.7Z"/>
  <path class="st1" d="M369.4,847.7v-17.3h-18.8v17.3c0,4.1,3.4,7.5,7.5,7.5h3.8c4.1,0,7.5-3.4,7.5-7.5Z"/>
  <path class="st1" d="M338.4,847.7v-17.3h-18.8v17.3c0,4.1,3.4,7.5,7.5,7.5h3.8c4.1,0,7.5-3.4,7.5-7.5Z"/>
  <path class="st1" d="M400.3,847.7v-17.3h-18.8v17.3c0,4.1,3.4,7.5,7.5,7.5h3.8c4.1,0,7.5-3.4,7.5-7.5Z"/>
  <path class="st1" d="M866.2,474.5h-18.8v17.7h18.8c4.1,0,7.5-3.4,7.5-7.5v-2.7c0-4.1-3.4-7.5-7.5-7.5Z"/>
  <path class="st1" d="M866.2,503.7h-18.8v17.7h18.8c4.1,0,7.5-3.4,7.5-7.5v-2.7c0-4.1-3.4-7.5-7.5-7.5Z"/>
  <path class="st1" d="M866.2,445.3h-18.8v17.7h18.8c4.1,0,7.5-3.4,7.5-7.5v-2.7c0-4.1-3.4-7.5-7.5-7.5Z"/>
  <path class="st1" d="M866.2,722.4h-18.8v17.7h18.8c4.1,0,7.5-3.4,7.5-7.5v-2.7c0-4.1-3.4-7.5-7.5-7.5Z"/>
  <path class="st1" d="M866.2,751.6h-18.8v17.7h18.8c4.1,0,7.5-3.4,7.5-7.5v-2.7c0-4.1-3.4-7.5-7.5-7.5Z"/>
  <path class="st1" d="M866.2,693.2h-18.8v17.7h18.8c4.1,0,7.5-3.4,7.5-7.5v-2.7c0-4.1-3.4-7.5-7.5-7.5Z"/>
  <path class="st1" d="M213.7,742.3h18.8v-17.7h-18.8c-4.1,0-7.5,3.4-7.5,7.5v2.7c0,4.1,3.4,7.5,7.5,7.5Z"/>
  <path class="st1" d="M213.7,713.1h18.8v-17.7h-18.8c-4.1,0-7.5,3.4-7.5,7.5v2.7c0,4.1,3.4,7.5,7.5,7.5Z"/>
  <path class="st1" d="M213.7,771.5h18.8v-17.7h-18.8c-4.1,0-7.5,3.4-7.5,7.5v2.7c0,4.1,3.4,7.5,7.5,7.5Z"/>
  <path class="st1" d="M213.7,492.2h18.8v-17.7h-18.8c-4.1,0-7.5,3.4-7.5,7.5v2.7c0,4.1,3.4,7.5,7.5,7.5Z"/>
  <path class="st1" d="M213.7,463h18.8v-17.7h-18.8c-4.1,0-7.5,3.4-7.5,7.5v2.7c0,4.1,3.4,7.5,7.5,7.5Z"/>
  <path class="st1" d="M213.7,521.4h18.8v-17.7h-18.8c-4.1,0-7.5,3.4-7.5,7.5v2.7c0,4.1,3.4,7.5,7.5,7.5Z"/>
  <path class="st1" d="M729.4,847.7v-17.3h-18.8v17.3c0,4.1,3.4,7.5,7.5,7.5h3.8c4.1,0,7.5-3.4,7.5-7.5Z"/>
  <path class="st1" d="M698.4,847.7v-17.3h-18.8v17.3c0,4.1,3.4,7.5,7.5,7.5h3.8c4.1,0,7.5-3.4,7.5-7.5Z"/>
  <path class="st1" d="M760.3,847.7v-17.3h-18.8v17.3c0,4.1,3.4,7.5,7.5,7.5h3.8c4.1,0,7.5-3.4,7.5-7.5Z"/>
  <polygon class="st1" points="166.9 178.7 166.9 243.9 223.9 178.7 166.9 178.7"/>
</svg>
